<mxfile host="65bd71144e">
    <diagram id="eZpJPJVczqijv4h0-cJU" name="Class-Diagram">
        <mxGraphModel dx="247" dy="644" grid="1" gridSize="10" guides="1" tooltips="1" connect="1" arrows="1" fold="1" page="1" pageScale="1" pageWidth="850" pageHeight="1100" math="0" shadow="0">
            <root>
                <mxCell id="0"/>
                <mxCell id="1" parent="0"/>
                <mxCell id="Q0E-r6XH0yL-TIMFn5R--1" value="football" style="shape=umlFrame;whiteSpace=wrap;html=1;rounded=0;shadow=0;comic=0;labelBackgroundColor=none;strokeWidth=1;fontFamily=Verdana;fontSize=10;align=center;" parent="1" vertex="1">
                    <mxGeometry x="1000" y="210" width="590" height="590" as="geometry"/>
                </mxCell>
                <mxCell id="kA-awJ8gpnhUGuPuTM6L-1" value="" style="endArrow=block;endSize=16;endFill=0;html=1;rounded=0;edgeStyle=orthogonalEdgeStyle;" parent="1" edge="1">
                    <mxGeometry width="160" relative="1" as="geometry">
                        <mxPoint x="1335.5" y="272" as="sourcePoint"/>
                        <mxPoint x="1210" y="444" as="targetPoint"/>
                        <Array as="points">
                            <mxPoint x="1280" y="272"/>
                            <mxPoint x="1280" y="444"/>
                        </Array>
                    </mxGeometry>
                </mxCell>
                <mxCell id="O6FgjZMFKmn0C8FnRDMK-6" value="&lt;p style=&quot;margin:0px;margin-top:4px;text-align:center;&quot;&gt;&lt;i&gt;&amp;lt;&amp;lt;interface&amp;gt;&amp;gt;&lt;/i&gt;&lt;br&gt;&lt;b&gt;SizeInterface&lt;/b&gt;&lt;/p&gt;&lt;hr size=&quot;1&quot;&gt;&lt;p style=&quot;margin:0px;margin-left:4px;&quot;&gt;&lt;/p&gt;&lt;p style=&quot;margin:0px;margin-left:4px;&quot;&gt;+ getObjectSize(): int&lt;br&gt;&lt;/p&gt;" style="verticalAlign=top;align=left;overflow=fill;fontSize=12;fontFamily=Helvetica;html=1;rounded=0;shadow=0;comic=0;labelBackgroundColor=none;strokeWidth=1;fillColor=#dae8fc;strokeColor=#6c8ebf;" parent="1" vertex="1">
                    <mxGeometry x="1060" y="274" width="140" height="70" as="geometry"/>
                </mxCell>
                <mxCell id="O6FgjZMFKmn0C8FnRDMK-7" value="AbstractEntity" style="swimlane;html=1;fontStyle=0;childLayout=stackLayout;horizontal=1;startSize=26;fillColor=#fff2cc;horizontalStack=0;resizeParent=1;resizeLast=0;collapsible=1;marginBottom=0;swimlaneFillColor=#ffffff;rounded=0;shadow=0;comic=0;labelBackgroundColor=none;strokeWidth=1;fontFamily=Verdana;fontSize=10;align=center;strokeColor=#d6b656;" parent="1" vertex="1">
                    <mxGeometry x="1050" y="418" width="160" height="60" as="geometry"/>
                </mxCell>
                <mxCell id="O6FgjZMFKmn0C8FnRDMK-8" value="+ id: int" style="text;html=1;strokeColor=none;fillColor=none;align=left;verticalAlign=top;spacingLeft=4;spacingRight=4;whiteSpace=wrap;overflow=hidden;rotatable=0;points=[[0,0.5],[1,0.5]];portConstraint=eastwest;" parent="O6FgjZMFKmn0C8FnRDMK-7" vertex="1">
                    <mxGeometry y="26" width="160" height="26" as="geometry"/>
                </mxCell>
                <mxCell id="O6FgjZMFKmn0C8FnRDMK-9" value="" style="endArrow=block;dashed=1;endFill=0;endSize=12;html=1;rounded=0;" parent="1" source="O6FgjZMFKmn0C8FnRDMK-7" target="O6FgjZMFKmn0C8FnRDMK-6" edge="1">
                    <mxGeometry width="160" relative="1" as="geometry">
                        <mxPoint x="1370" y="464" as="sourcePoint"/>
                        <mxPoint x="1530" y="464" as="targetPoint"/>
                    </mxGeometry>
                </mxCell>
                <mxCell id="O6FgjZMFKmn0C8FnRDMK-10" value="LeagueEntity" style="swimlane;html=1;fontStyle=0;childLayout=stackLayout;horizontal=1;startSize=26;fillColor=#ffe6cc;horizontalStack=0;resizeParent=1;resizeLast=0;collapsible=1;marginBottom=0;swimlaneFillColor=#ffffff;rounded=0;shadow=0;comic=0;labelBackgroundColor=none;strokeWidth=1;fontFamily=Verdana;fontSize=10;align=center;strokeColor=#d79b00;" parent="1" vertex="1">
                    <mxGeometry x="1335.5" y="220" width="149" height="160" as="geometry"/>
                </mxCell>
                <mxCell id="O6FgjZMFKmn0C8FnRDMK-11" value="+ name: string" style="text;html=1;strokeColor=none;fillColor=none;align=left;verticalAlign=top;spacingLeft=4;spacingRight=4;whiteSpace=wrap;overflow=hidden;rotatable=0;points=[[0,0.5],[1,0.5]];portConstraint=eastwest;" parent="O6FgjZMFKmn0C8FnRDMK-10" vertex="1">
                    <mxGeometry y="26" width="149" height="26" as="geometry"/>
                </mxCell>
                <mxCell id="O6FgjZMFKmn0C8FnRDMK-12" value="+ firstMatch: date" style="text;html=1;strokeColor=none;fillColor=none;align=left;verticalAlign=top;spacingLeft=4;spacingRight=4;whiteSpace=wrap;overflow=hidden;rotatable=0;points=[[0,0.5],[1,0.5]];portConstraint=eastwest;" parent="O6FgjZMFKmn0C8FnRDMK-10" vertex="1">
                    <mxGeometry y="52" width="149" height="26" as="geometry"/>
                </mxCell>
                <mxCell id="O6FgjZMFKmn0C8FnRDMK-13" value="+ recordPlayer: string" style="text;html=1;strokeColor=none;fillColor=none;align=left;verticalAlign=top;spacingLeft=4;spacingRight=4;whiteSpace=wrap;overflow=hidden;rotatable=0;points=[[0,0.5],[1,0.5]];portConstraint=eastwest;" parent="O6FgjZMFKmn0C8FnRDMK-10" vertex="1">
                    <mxGeometry y="78" width="149" height="26" as="geometry"/>
                </mxCell>
                <mxCell id="O6FgjZMFKmn0C8FnRDMK-14" value="+ gamesRecordPlayer: int" style="text;html=1;strokeColor=none;fillColor=none;align=left;verticalAlign=top;spacingLeft=4;spacingRight=4;whiteSpace=wrap;overflow=hidden;rotatable=0;points=[[0,0.5],[1,0.5]];portConstraint=eastwest;" parent="O6FgjZMFKmn0C8FnRDMK-10" vertex="1">
                    <mxGeometry y="104" width="149" height="26" as="geometry"/>
                </mxCell>
                <mxCell id="LMY0QmkgWvNFTnshkGw3-15" value="+ champion: ClubEntity" style="text;html=1;strokeColor=none;fillColor=none;align=left;verticalAlign=top;spacingLeft=4;spacingRight=4;whiteSpace=wrap;overflow=hidden;rotatable=0;points=[[0,0.5],[1,0.5]];portConstraint=eastwest;" parent="O6FgjZMFKmn0C8FnRDMK-10" vertex="1">
                    <mxGeometry y="130" width="149" height="26" as="geometry"/>
                </mxCell>
                <mxCell id="O6FgjZMFKmn0C8FnRDMK-22" value="" style="endArrow=none;html=1;edgeStyle=orthogonalEdgeStyle;rounded=0;entryX=0.495;entryY=0.01;entryDx=0;entryDy=0;entryPerimeter=0;" parent="1" target="O6FgjZMFKmn0C8FnRDMK-15" edge="1">
                    <mxGeometry relative="1" as="geometry">
                        <mxPoint x="1450" y="540" as="sourcePoint"/>
                        <mxPoint x="1449.83" y="590" as="targetPoint"/>
                    </mxGeometry>
                </mxCell>
                <mxCell id="O6FgjZMFKmn0C8FnRDMK-23" value="0..1" style="edgeLabel;resizable=0;html=1;align=left;verticalAlign=bottom;" parent="O6FgjZMFKmn0C8FnRDMK-22" connectable="0" vertex="1">
                    <mxGeometry x="-1" relative="1" as="geometry">
                        <mxPoint y="19" as="offset"/>
                    </mxGeometry>
                </mxCell>
                <mxCell id="O6FgjZMFKmn0C8FnRDMK-24" value="0..*" style="edgeLabel;resizable=0;html=1;align=right;verticalAlign=bottom;" parent="O6FgjZMFKmn0C8FnRDMK-22" connectable="0" vertex="1">
                    <mxGeometry x="1" relative="1" as="geometry"/>
                </mxCell>
                <mxCell id="LMY0QmkgWvNFTnshkGw3-18" value="myPlayers" style="edgeLabel;html=1;align=center;verticalAlign=middle;resizable=0;points=[];" parent="O6FgjZMFKmn0C8FnRDMK-22" vertex="1" connectable="0">
                    <mxGeometry x="0.272" relative="1" as="geometry">
                        <mxPoint y="-7" as="offset"/>
                    </mxGeometry>
                </mxCell>
                <mxCell id="O6FgjZMFKmn0C8FnRDMK-25" value="GameEntity" style="swimlane;html=1;fontStyle=0;childLayout=stackLayout;horizontal=1;startSize=26;fillColor=#ffe6cc;horizontalStack=0;resizeParent=1;resizeLast=0;collapsible=1;marginBottom=0;swimlaneFillColor=#ffffff;rounded=0;shadow=0;comic=0;labelBackgroundColor=none;strokeWidth=1;fontFamily=Verdana;fontSize=10;align=center;strokeColor=#d79b00;" parent="1" vertex="1">
                    <mxGeometry x="1090" y="592" width="160" height="188" as="geometry"/>
                </mxCell>
                <mxCell id="O6FgjZMFKmn0C8FnRDMK-26" value="+ matchday: int" style="text;html=1;strokeColor=none;fillColor=none;align=left;verticalAlign=top;spacingLeft=4;spacingRight=4;whiteSpace=wrap;overflow=hidden;rotatable=0;points=[[0,0.5],[1,0.5]];portConstraint=eastwest;" parent="O6FgjZMFKmn0C8FnRDMK-25" vertex="1">
                    <mxGeometry y="26" width="160" height="26" as="geometry"/>
                </mxCell>
                <mxCell id="O6FgjZMFKmn0C8FnRDMK-27" value="+ matchDate: date" style="text;html=1;strokeColor=none;fillColor=none;align=left;verticalAlign=top;spacingLeft=4;spacingRight=4;whiteSpace=wrap;overflow=hidden;rotatable=0;points=[[0,0.5],[1,0.5]];portConstraint=eastwest;" parent="O6FgjZMFKmn0C8FnRDMK-25" vertex="1">
                    <mxGeometry y="52" width="160" height="26" as="geometry"/>
                </mxCell>
                <mxCell id="O6FgjZMFKmn0C8FnRDMK-28" value="+ matchTime: time" style="text;html=1;strokeColor=none;fillColor=none;align=left;verticalAlign=top;spacingLeft=4;spacingRight=4;whiteSpace=wrap;overflow=hidden;rotatable=0;points=[[0,0.5],[1,0.5]];portConstraint=eastwest;" parent="O6FgjZMFKmn0C8FnRDMK-25" vertex="1">
                    <mxGeometry y="78" width="160" height="26" as="geometry"/>
                </mxCell>
                <mxCell id="O6FgjZMFKmn0C8FnRDMK-29" value="+ goalsHome: int" style="text;html=1;strokeColor=none;fillColor=none;align=left;verticalAlign=top;spacingLeft=4;spacingRight=4;whiteSpace=wrap;overflow=hidden;rotatable=0;points=[[0,0.5],[1,0.5]];portConstraint=eastwest;" parent="O6FgjZMFKmn0C8FnRDMK-25" vertex="1">
                    <mxGeometry y="104" width="160" height="26" as="geometry"/>
                </mxCell>
                <mxCell id="O6FgjZMFKmn0C8FnRDMK-30" value="+ goalsGuest: int" style="text;html=1;strokeColor=none;fillColor=none;align=left;verticalAlign=top;spacingLeft=4;spacingRight=4;whiteSpace=wrap;overflow=hidden;rotatable=0;points=[[0,0.5],[1,0.5]];portConstraint=eastwest;" parent="O6FgjZMFKmn0C8FnRDMK-25" vertex="1">
                    <mxGeometry y="130" width="160" height="26" as="geometry"/>
                </mxCell>
                <mxCell id="O6FgjZMFKmn0C8FnRDMK-31" value="" style="endArrow=none;html=1;edgeStyle=orthogonalEdgeStyle;rounded=0;exitX=0.25;exitY=1;exitDx=0;exitDy=0;entryX=1;entryY=0.5;entryDx=0;entryDy=0;" parent="1" source="O6FgjZMFKmn0C8FnRDMK-34" target="O6FgjZMFKmn0C8FnRDMK-26" edge="1">
                    <mxGeometry relative="1" as="geometry">
                        <mxPoint x="1420" y="514" as="sourcePoint"/>
                        <mxPoint x="1420" y="624" as="targetPoint"/>
                        <Array as="points">
                            <mxPoint x="1370" y="550"/>
                            <mxPoint x="1310" y="550"/>
                            <mxPoint x="1310" y="630"/>
                        </Array>
                    </mxGeometry>
                </mxCell>
                <mxCell id="O6FgjZMFKmn0C8FnRDMK-32" value="2" style="edgeLabel;resizable=0;html=1;align=left;verticalAlign=bottom;" parent="O6FgjZMFKmn0C8FnRDMK-31" connectable="0" vertex="1">
                    <mxGeometry x="-1" relative="1" as="geometry">
                        <mxPoint x="2" y="16" as="offset"/>
                    </mxGeometry>
                </mxCell>
                <mxCell id="O6FgjZMFKmn0C8FnRDMK-33" value="0..*" style="edgeLabel;resizable=0;html=1;align=right;verticalAlign=bottom;" parent="O6FgjZMFKmn0C8FnRDMK-31" connectable="0" vertex="1">
                    <mxGeometry x="1" relative="1" as="geometry">
                        <mxPoint x="20" as="offset"/>
                    </mxGeometry>
                </mxCell>
                <mxCell id="LMY0QmkgWvNFTnshkGw3-19" value="myGames" style="edgeLabel;html=1;align=center;verticalAlign=middle;resizable=0;points=[];" parent="O6FgjZMFKmn0C8FnRDMK-31" vertex="1" connectable="0">
                    <mxGeometry x="0.0604" y="-1" relative="1" as="geometry">
                        <mxPoint as="offset"/>
                    </mxGeometry>
                </mxCell>
                <mxCell id="O6FgjZMFKmn0C8FnRDMK-34" value="ClubEntity" style="swimlane;html=1;fontStyle=0;childLayout=stackLayout;horizontal=1;startSize=26;fillColor=#ffe6cc;horizontalStack=0;resizeParent=1;resizeLast=0;collapsible=1;marginBottom=0;swimlaneFillColor=#ffffff;rounded=0;shadow=0;comic=0;labelBackgroundColor=none;strokeWidth=1;fontFamily=Verdana;fontSize=10;align=center;strokeColor=#d79b00;" parent="1" vertex="1">
                    <mxGeometry x="1330" y="427" width="160" height="112" as="geometry"/>
                </mxCell>
                <mxCell id="O6FgjZMFKmn0C8FnRDMK-35" value="+ league: LeagueEntity" style="text;html=1;strokeColor=none;fillColor=none;align=left;verticalAlign=top;spacingLeft=4;spacingRight=4;whiteSpace=wrap;overflow=hidden;rotatable=0;points=[[0,0.5],[1,0.5]];portConstraint=eastwest;" parent="O6FgjZMFKmn0C8FnRDMK-34" vertex="1">
                    <mxGeometry y="26" width="160" height="26" as="geometry"/>
                </mxCell>
                <mxCell id="O6FgjZMFKmn0C8FnRDMK-36" value="+ name: String" style="text;html=1;strokeColor=none;fillColor=none;align=left;verticalAlign=top;spacingLeft=4;spacingRight=4;whiteSpace=wrap;overflow=hidden;rotatable=0;points=[[0,0.5],[1,0.5]];portConstraint=eastwest;" parent="O6FgjZMFKmn0C8FnRDMK-34" vertex="1">
                    <mxGeometry y="52" width="160" height="26" as="geometry"/>
                </mxCell>
                <mxCell id="ep7oCzcexHzvcINGiGZ5-3" value="+ noOfMembers: int" style="text;strokeColor=none;fillColor=none;align=left;verticalAlign=top;spacingLeft=4;spacingRight=4;overflow=hidden;rotatable=0;points=[[0,0.5],[1,0.5]];portConstraint=eastwest;" vertex="1" parent="O6FgjZMFKmn0C8FnRDMK-34">
                    <mxGeometry y="78" width="160" height="26" as="geometry"/>
                </mxCell>
                <mxCell id="O6FgjZMFKmn0C8FnRDMK-39" value="" style="endArrow=none;html=1;edgeStyle=orthogonalEdgeStyle;rounded=0;" parent="1" source="O6FgjZMFKmn0C8FnRDMK-34" target="O6FgjZMFKmn0C8FnRDMK-10" edge="1">
                    <mxGeometry relative="1" as="geometry">
                        <mxPoint x="1475" y="460" as="sourcePoint"/>
                        <mxPoint x="1615" y="460" as="targetPoint"/>
                    </mxGeometry>
                </mxCell>
                <mxCell id="O6FgjZMFKmn0C8FnRDMK-40" value="0..*" style="edgeLabel;resizable=0;html=1;align=left;verticalAlign=bottom;" parent="O6FgjZMFKmn0C8FnRDMK-39" connectable="0" vertex="1">
                    <mxGeometry x="-1" relative="1" as="geometry"/>
                </mxCell>
                <mxCell id="O6FgjZMFKmn0C8FnRDMK-41" value="0..1" style="edgeLabel;resizable=0;html=1;align=right;verticalAlign=bottom;" parent="O6FgjZMFKmn0C8FnRDMK-39" connectable="0" vertex="1">
                    <mxGeometry x="1" relative="1" as="geometry">
                        <mxPoint x="20" y="16" as="offset"/>
                    </mxGeometry>
                </mxCell>
                <mxCell id="LMY0QmkgWvNFTnshkGw3-17" value="myClubs" style="edgeLabel;html=1;align=center;verticalAlign=middle;resizable=0;points=[];" parent="O6FgjZMFKmn0C8FnRDMK-39" vertex="1" connectable="0">
                    <mxGeometry x="-0.0468" y="-1" relative="1" as="geometry">
                        <mxPoint as="offset"/>
                    </mxGeometry>
                </mxCell>
                <mxCell id="O6FgjZMFKmn0C8FnRDMK-42" value="" style="endArrow=block;endSize=16;endFill=0;html=1;rounded=0;edgeStyle=orthogonalEdgeStyle;" parent="1" source="O6FgjZMFKmn0C8FnRDMK-34" target="O6FgjZMFKmn0C8FnRDMK-7" edge="1">
                    <mxGeometry width="160" relative="1" as="geometry">
                        <mxPoint x="1165" y="360" as="sourcePoint"/>
                        <mxPoint x="1055" y="304" as="targetPoint"/>
                        <Array as="points">
                            <mxPoint x="1300" y="470"/>
                            <mxPoint x="1300" y="470"/>
                        </Array>
                    </mxGeometry>
                </mxCell>
                <mxCell id="O6FgjZMFKmn0C8FnRDMK-43" value="" style="endArrow=block;endSize=16;endFill=0;html=1;rounded=0;edgeStyle=orthogonalEdgeStyle;" parent="1" source="O6FgjZMFKmn0C8FnRDMK-10" target="O6FgjZMFKmn0C8FnRDMK-7" edge="1">
                    <mxGeometry width="160" relative="1" as="geometry">
                        <mxPoint x="1340" y="454" as="sourcePoint"/>
                        <mxPoint x="1220" y="454" as="targetPoint"/>
                        <Array as="points">
                            <mxPoint x="1280" y="272"/>
                            <mxPoint x="1280" y="444"/>
                        </Array>
                    </mxGeometry>
                </mxCell>
                <mxCell id="O6FgjZMFKmn0C8FnRDMK-44" value="" style="endArrow=block;endSize=16;endFill=0;html=1;rounded=0;edgeStyle=orthogonalEdgeStyle;exitX=0.25;exitY=0;exitDx=0;exitDy=0;" parent="1" source="O6FgjZMFKmn0C8FnRDMK-25" target="O6FgjZMFKmn0C8FnRDMK-7" edge="1">
                    <mxGeometry width="160" relative="1" as="geometry">
                        <mxPoint x="1350" y="464" as="sourcePoint"/>
                        <mxPoint x="1230" y="464" as="targetPoint"/>
                    </mxGeometry>
                </mxCell>
                <mxCell id="O6FgjZMFKmn0C8FnRDMK-45" value="" style="endArrow=block;endSize=16;endFill=0;html=1;rounded=0;edgeStyle=orthogonalEdgeStyle;exitX=0.25;exitY=0;exitDx=0;exitDy=0;" parent="1" source="O6FgjZMFKmn0C8FnRDMK-15" target="O6FgjZMFKmn0C8FnRDMK-7" edge="1">
                    <mxGeometry width="160" relative="1" as="geometry">
                        <mxPoint x="1360" y="474" as="sourcePoint"/>
                        <mxPoint x="1240" y="474" as="targetPoint"/>
                        <Array as="points">
                            <mxPoint x="1410" y="570"/>
                            <mxPoint x="1130" y="570"/>
                        </Array>
                    </mxGeometry>
                </mxCell>
                <mxCell id="O6FgjZMFKmn0C8FnRDMK-15" value="PlayerEntity" style="swimlane;html=1;fontStyle=0;childLayout=stackLayout;horizontal=1;startSize=26;fillColor=#ffe6cc;horizontalStack=0;resizeParent=1;resizeLast=0;collapsible=1;marginBottom=0;swimlaneFillColor=#ffffff;rounded=0;shadow=0;comic=0;labelBackgroundColor=none;strokeWidth=1;fontFamily=Verdana;fontSize=10;align=center;strokeColor=#d79b00;" parent="1" vertex="1">
                    <mxGeometry x="1371" y="592" width="160" height="182" as="geometry"/>
                </mxCell>
                <mxCell id="O6FgjZMFKmn0C8FnRDMK-16" value="+ name: string" style="text;html=1;strokeColor=none;fillColor=none;align=left;verticalAlign=top;spacingLeft=4;spacingRight=4;whiteSpace=wrap;overflow=hidden;rotatable=0;points=[[0,0.5],[1,0.5]];portConstraint=eastwest;" parent="O6FgjZMFKmn0C8FnRDMK-15" vertex="1">
                    <mxGeometry y="26" width="160" height="26" as="geometry"/>
                </mxCell>
                <mxCell id="O6FgjZMFKmn0C8FnRDMK-17" value="+ trikotNumber: int" style="text;html=1;strokeColor=none;fillColor=none;align=left;verticalAlign=top;spacingLeft=4;spacingRight=4;whiteSpace=wrap;overflow=hidden;rotatable=0;points=[[0,0.5],[1,0.5]];portConstraint=eastwest;" parent="O6FgjZMFKmn0C8FnRDMK-15" vertex="1">
                    <mxGeometry y="52" width="160" height="26" as="geometry"/>
                </mxCell>
                <mxCell id="O6FgjZMFKmn0C8FnRDMK-18" value="+ country: string" style="text;html=1;strokeColor=none;fillColor=none;align=left;verticalAlign=top;spacingLeft=4;spacingRight=4;whiteSpace=wrap;overflow=hidden;rotatable=0;points=[[0,0.5],[1,0.5]];portConstraint=eastwest;" parent="O6FgjZMFKmn0C8FnRDMK-15" vertex="1">
                    <mxGeometry y="78" width="160" height="26" as="geometry"/>
                </mxCell>
                <mxCell id="O6FgjZMFKmn0C8FnRDMK-19" value="+ amountOfGames: int" style="text;html=1;strokeColor=none;fillColor=none;align=left;verticalAlign=top;spacingLeft=4;spacingRight=4;whiteSpace=wrap;overflow=hidden;rotatable=0;points=[[0,0.5],[1,0.5]];portConstraint=eastwest;" parent="O6FgjZMFKmn0C8FnRDMK-15" vertex="1">
                    <mxGeometry y="104" width="160" height="26" as="geometry"/>
                </mxCell>
                <mxCell id="O6FgjZMFKmn0C8FnRDMK-20" value="+ goals: int" style="text;html=1;strokeColor=none;fillColor=none;align=left;verticalAlign=top;spacingLeft=4;spacingRight=4;whiteSpace=wrap;overflow=hidden;rotatable=0;points=[[0,0.5],[1,0.5]];portConstraint=eastwest;" parent="O6FgjZMFKmn0C8FnRDMK-15" vertex="1">
                    <mxGeometry y="130" width="160" height="26" as="geometry"/>
                </mxCell>
                <mxCell id="O6FgjZMFKmn0C8FnRDMK-21" value="+ assists: int" style="text;html=1;strokeColor=none;fillColor=none;align=left;verticalAlign=top;spacingLeft=4;spacingRight=4;whiteSpace=wrap;overflow=hidden;rotatable=0;points=[[0,0.5],[1,0.5]];portConstraint=eastwest;" parent="O6FgjZMFKmn0C8FnRDMK-15" vertex="1">
                    <mxGeometry y="156" width="160" height="26" as="geometry"/>
                </mxCell>
                <mxCell id="LMY0QmkgWvNFTnshkGw3-12" value="" style="endArrow=none;html=1;edgeStyle=orthogonalEdgeStyle;rounded=0;exitX=1;exitY=0.75;exitDx=0;exitDy=0;" parent="1" source="O6FgjZMFKmn0C8FnRDMK-34" target="LMY0QmkgWvNFTnshkGw3-15" edge="1">
                    <mxGeometry relative="1" as="geometry">
                        <mxPoint x="1540" y="400" as="sourcePoint"/>
                        <mxPoint x="1540" y="362" as="targetPoint"/>
                        <Array as="points">
                            <mxPoint x="1520" y="511"/>
                            <mxPoint x="1520" y="363"/>
                        </Array>
                    </mxGeometry>
                </mxCell>
                <mxCell id="LMY0QmkgWvNFTnshkGw3-13" value="1" style="edgeLabel;resizable=0;html=1;align=left;verticalAlign=bottom;" parent="LMY0QmkgWvNFTnshkGw3-12" connectable="0" vertex="1">
                    <mxGeometry x="-1" relative="1" as="geometry"/>
                </mxCell>
                <mxCell id="LMY0QmkgWvNFTnshkGw3-14" value="0" style="edgeLabel;resizable=0;html=1;align=right;verticalAlign=bottom;" parent="LMY0QmkgWvNFTnshkGw3-12" connectable="0" vertex="1">
                    <mxGeometry x="1" relative="1" as="geometry">
                        <mxPoint x="20" y="16" as="offset"/>
                    </mxGeometry>
                </mxCell>
                <mxCell id="LMY0QmkgWvNFTnshkGw3-16" value="myChampion" style="edgeLabel;html=1;align=center;verticalAlign=middle;resizable=0;points=[];" parent="LMY0QmkgWvNFTnshkGw3-12" vertex="1" connectable="0">
                    <mxGeometry x="0.228" relative="1" as="geometry">
                        <mxPoint x="20" y="-11" as="offset"/>
                    </mxGeometry>
                </mxCell>
                <mxCell id="Xw4v44PQ6yykYLc8u8EY-5" value="SportsClub" style="swimlane;html=1;fontStyle=0;childLayout=stackLayout;horizontal=1;startSize=26;fillColor=none;horizontalStack=0;resizeParent=1;resizeLast=0;collapsible=1;marginBottom=0;swimlaneFillColor=#ffffff;rounded=0;shadow=0;comic=0;labelBackgroundColor=none;strokeWidth=1;fontFamily=Verdana;fontSize=10;align=center;" parent="1" vertex="1">
                    <mxGeometry x="1920" y="274" width="160" height="104" as="geometry"/>
                </mxCell>
                <mxCell id="Xw4v44PQ6yykYLc8u8EY-6" value="+ name: string" style="text;html=1;strokeColor=none;fillColor=none;align=left;verticalAlign=top;spacingLeft=4;spacingRight=4;whiteSpace=wrap;overflow=hidden;rotatable=0;points=[[0,0.5],[1,0.5]];portConstraint=eastwest;" parent="Xw4v44PQ6yykYLc8u8EY-5" vertex="1">
                    <mxGeometry y="26" width="160" height="26" as="geometry"/>
                </mxCell>
                <mxCell id="Xw4v44PQ6yykYLc8u8EY-7" value="+ founded: date" style="text;html=1;strokeColor=none;fillColor=none;align=left;verticalAlign=top;spacingLeft=4;spacingRight=4;whiteSpace=wrap;overflow=hidden;rotatable=0;points=[[0,0.5],[1,0.5]];portConstraint=eastwest;" parent="Xw4v44PQ6yykYLc8u8EY-5" vertex="1">
                    <mxGeometry y="52" width="160" height="26" as="geometry"/>
                </mxCell>
                <mxCell id="Xw4v44PQ6yykYLc8u8EY-8" value="+ members: int" style="text;html=1;strokeColor=none;fillColor=none;align=left;verticalAlign=top;spacingLeft=4;spacingRight=4;whiteSpace=wrap;overflow=hidden;rotatable=0;points=[[0,0.5],[1,0.5]];portConstraint=eastwest;" parent="Xw4v44PQ6yykYLc8u8EY-5" vertex="1">
                    <mxGeometry y="78" width="160" height="26" as="geometry"/>
                </mxCell>
                <mxCell id="Xw4v44PQ6yykYLc8u8EY-9" value="" style="endArrow=block;endSize=16;endFill=0;html=1;rounded=0;edgeStyle=orthogonalEdgeStyle;" parent="1" source="Xw4v44PQ6yykYLc8u8EY-46" target="Xw4v44PQ6yykYLc8u8EY-5" edge="1">
                    <mxGeometry width="160" relative="1" as="geometry">
                        <mxPoint x="1840" y="504" as="sourcePoint"/>
                        <mxPoint x="2000" y="504" as="targetPoint"/>
                    </mxGeometry>
                </mxCell>
                <mxCell id="Xw4v44PQ6yykYLc8u8EY-10" value="SailingClub" style="swimlane;html=1;fontStyle=0;childLayout=stackLayout;horizontal=1;startSize=26;horizontalStack=0;resizeParent=1;resizeLast=0;collapsible=1;marginBottom=0;swimlaneFillColor=#ffffff;rounded=0;shadow=0;comic=0;labelBackgroundColor=none;strokeWidth=1;fontFamily=Verdana;fontSize=10;align=center;" parent="1" vertex="1">
                    <mxGeometry x="1810" y="434" width="160" height="104" as="geometry"/>
                </mxCell>
                <mxCell id="Xw4v44PQ6yykYLc8u8EY-11" value="+ wonCups: int" style="text;html=1;strokeColor=none;fillColor=none;align=left;verticalAlign=top;spacingLeft=4;spacingRight=4;whiteSpace=wrap;overflow=hidden;rotatable=0;points=[[0,0.5],[1,0.5]];portConstraint=eastwest;" parent="Xw4v44PQ6yykYLc8u8EY-10" vertex="1">
                    <mxGeometry y="26" width="160" height="26" as="geometry"/>
                </mxCell>
                <mxCell id="Xw4v44PQ6yykYLc8u8EY-12" value="+ noOfBoats: int" style="text;html=1;strokeColor=none;fillColor=none;align=left;verticalAlign=top;spacingLeft=4;spacingRight=4;whiteSpace=wrap;overflow=hidden;rotatable=0;points=[[0,0.5],[1,0.5]];portConstraint=eastwest;" parent="Xw4v44PQ6yykYLc8u8EY-10" vertex="1">
                    <mxGeometry y="52" width="160" height="26" as="geometry"/>
                </mxCell>
                <mxCell id="Xw4v44PQ6yykYLc8u8EY-13" value="+ hasMarina: boolean" style="text;html=1;strokeColor=none;fillColor=none;align=left;verticalAlign=top;spacingLeft=4;spacingRight=4;whiteSpace=wrap;overflow=hidden;rotatable=0;points=[[0,0.5],[1,0.5]];portConstraint=eastwest;" parent="Xw4v44PQ6yykYLc8u8EY-10" vertex="1">
                    <mxGeometry y="78" width="160" height="26" as="geometry"/>
                </mxCell>
                <mxCell id="Xw4v44PQ6yykYLc8u8EY-14" value="" style="endArrow=block;endSize=16;endFill=0;html=1;rounded=0;edgeStyle=orthogonalEdgeStyle;exitX=0.5;exitY=0;exitDx=0;exitDy=0;" parent="1" source="Xw4v44PQ6yykYLc8u8EY-10" target="Xw4v44PQ6yykYLc8u8EY-5" edge="1">
                    <mxGeometry width="160" relative="1" as="geometry">
                        <mxPoint x="2120" y="444" as="sourcePoint"/>
                        <mxPoint x="2010" y="388" as="targetPoint"/>
                    </mxGeometry>
                </mxCell>
                <mxCell id="Xw4v44PQ6yykYLc8u8EY-15" value="&lt;p style=&quot;margin:0px;margin-top:4px;text-align:center;&quot;&gt;&lt;i&gt;&amp;lt;&amp;lt;interface&amp;gt;&amp;gt;&lt;/i&gt;&lt;br&gt;&lt;b&gt;SizeInterface&lt;/b&gt;&lt;/p&gt;&lt;hr size=&quot;1&quot;&gt;&lt;p style=&quot;margin:0px;margin-left:4px;&quot;&gt;&lt;/p&gt;&lt;p style=&quot;margin:0px;margin-left:4px;&quot;&gt;+ getObjectSize(): int&lt;br&gt;&lt;/p&gt;" style="verticalAlign=top;align=left;overflow=fill;fontSize=12;fontFamily=Helvetica;html=1;rounded=0;shadow=0;comic=0;labelBackgroundColor=none;strokeWidth=1" parent="1" vertex="1">
                    <mxGeometry x="2170" y="160" width="140" height="70" as="geometry"/>
                </mxCell>
                <mxCell id="Xw4v44PQ6yykYLc8u8EY-16" value="AbstractEntity" style="swimlane;html=1;fontStyle=0;childLayout=stackLayout;horizontal=1;startSize=26;fillColor=none;horizontalStack=0;resizeParent=1;resizeLast=0;collapsible=1;marginBottom=0;swimlaneFillColor=#ffffff;rounded=0;shadow=0;comic=0;labelBackgroundColor=none;strokeWidth=1;fontFamily=Verdana;fontSize=10;align=center;" parent="1" vertex="1">
                    <mxGeometry x="1920" y="164" width="160" height="60" as="geometry"/>
                </mxCell>
                <mxCell id="Xw4v44PQ6yykYLc8u8EY-17" value="+ id: int" style="text;html=1;strokeColor=none;fillColor=none;align=left;verticalAlign=top;spacingLeft=4;spacingRight=4;whiteSpace=wrap;overflow=hidden;rotatable=0;points=[[0,0.5],[1,0.5]];portConstraint=eastwest;" parent="Xw4v44PQ6yykYLc8u8EY-16" vertex="1">
                    <mxGeometry y="26" width="160" height="26" as="geometry"/>
                </mxCell>
                <mxCell id="Xw4v44PQ6yykYLc8u8EY-18" value="" style="endArrow=block;endSize=16;endFill=0;html=1;rounded=0;edgeStyle=orthogonalEdgeStyle;" parent="1" target="Xw4v44PQ6yykYLc8u8EY-16" edge="1">
                    <mxGeometry width="160" relative="1" as="geometry">
                        <mxPoint x="2000" y="274" as="sourcePoint"/>
                        <mxPoint x="2010" y="388" as="targetPoint"/>
                    </mxGeometry>
                </mxCell>
                <mxCell id="Xw4v44PQ6yykYLc8u8EY-19" value="" style="endArrow=block;dashed=1;endFill=0;endSize=12;html=1;rounded=0;" parent="1" source="Xw4v44PQ6yykYLc8u8EY-16" target="Xw4v44PQ6yykYLc8u8EY-15" edge="1">
                    <mxGeometry width="160" relative="1" as="geometry">
                        <mxPoint x="2160" y="384" as="sourcePoint"/>
                        <mxPoint x="2320" y="384" as="targetPoint"/>
                    </mxGeometry>
                </mxCell>
                <mxCell id="Xw4v44PQ6yykYLc8u8EY-20" value="League" style="swimlane;html=1;fontStyle=0;childLayout=stackLayout;horizontal=1;startSize=26;fillColor=none;horizontalStack=0;resizeParent=1;resizeLast=0;collapsible=1;marginBottom=0;swimlaneFillColor=#ffffff;rounded=0;shadow=0;comic=0;labelBackgroundColor=none;strokeWidth=1;fontFamily=Verdana;fontSize=10;align=center;" parent="1" vertex="1">
                    <mxGeometry x="2300" y="452" width="150" height="104" as="geometry"/>
                </mxCell>
                <mxCell id="Xw4v44PQ6yykYLc8u8EY-21" value="+ name: string" style="text;html=1;strokeColor=none;fillColor=none;align=left;verticalAlign=top;spacingLeft=4;spacingRight=4;whiteSpace=wrap;overflow=hidden;rotatable=0;points=[[0,0.5],[1,0.5]];portConstraint=eastwest;" parent="Xw4v44PQ6yykYLc8u8EY-20" vertex="1">
                    <mxGeometry y="26" width="150" height="26" as="geometry"/>
                </mxCell>
                <mxCell id="Xw4v44PQ6yykYLc8u8EY-22" value="+ firstMatch: date" style="text;html=1;strokeColor=none;fillColor=none;align=left;verticalAlign=top;spacingLeft=4;spacingRight=4;whiteSpace=wrap;overflow=hidden;rotatable=0;points=[[0,0.5],[1,0.5]];portConstraint=eastwest;" parent="Xw4v44PQ6yykYLc8u8EY-20" vertex="1">
                    <mxGeometry y="52" width="150" height="26" as="geometry"/>
                </mxCell>
                <mxCell id="Xw4v44PQ6yykYLc8u8EY-23" value="+ gamesRecordPlayer: int" style="text;html=1;strokeColor=none;fillColor=none;align=left;verticalAlign=top;spacingLeft=4;spacingRight=4;whiteSpace=wrap;overflow=hidden;rotatable=0;points=[[0,0.5],[1,0.5]];portConstraint=eastwest;" parent="Xw4v44PQ6yykYLc8u8EY-20" vertex="1">
                    <mxGeometry y="78" width="150" height="26" as="geometry"/>
                </mxCell>
                <mxCell id="Xw4v44PQ6yykYLc8u8EY-24" value="Player" style="swimlane;html=1;fontStyle=0;childLayout=stackLayout;horizontal=1;startSize=26;fillColor=none;horizontalStack=0;resizeParent=1;resizeLast=0;collapsible=1;marginBottom=0;swimlaneFillColor=#ffffff;rounded=0;shadow=0;comic=0;labelBackgroundColor=none;strokeWidth=1;fontFamily=Verdana;fontSize=10;align=center;" parent="1" vertex="1">
                    <mxGeometry x="2140" y="658" width="160" height="182" as="geometry"/>
                </mxCell>
                <mxCell id="Xw4v44PQ6yykYLc8u8EY-25" value="+ name: string" style="text;html=1;strokeColor=none;fillColor=none;align=left;verticalAlign=top;spacingLeft=4;spacingRight=4;whiteSpace=wrap;overflow=hidden;rotatable=0;points=[[0,0.5],[1,0.5]];portConstraint=eastwest;" parent="Xw4v44PQ6yykYLc8u8EY-24" vertex="1">
                    <mxGeometry y="26" width="160" height="26" as="geometry"/>
                </mxCell>
                <mxCell id="Xw4v44PQ6yykYLc8u8EY-26" value="+ trikotNumber: int" style="text;html=1;strokeColor=none;fillColor=none;align=left;verticalAlign=top;spacingLeft=4;spacingRight=4;whiteSpace=wrap;overflow=hidden;rotatable=0;points=[[0,0.5],[1,0.5]];portConstraint=eastwest;" parent="Xw4v44PQ6yykYLc8u8EY-24" vertex="1">
                    <mxGeometry y="52" width="160" height="26" as="geometry"/>
                </mxCell>
                <mxCell id="Xw4v44PQ6yykYLc8u8EY-27" value="+ country: string" style="text;html=1;strokeColor=none;fillColor=none;align=left;verticalAlign=top;spacingLeft=4;spacingRight=4;whiteSpace=wrap;overflow=hidden;rotatable=0;points=[[0,0.5],[1,0.5]];portConstraint=eastwest;" parent="Xw4v44PQ6yykYLc8u8EY-24" vertex="1">
                    <mxGeometry y="78" width="160" height="26" as="geometry"/>
                </mxCell>
                <mxCell id="Xw4v44PQ6yykYLc8u8EY-28" value="+ amountOfGames: int" style="text;html=1;strokeColor=none;fillColor=none;align=left;verticalAlign=top;spacingLeft=4;spacingRight=4;whiteSpace=wrap;overflow=hidden;rotatable=0;points=[[0,0.5],[1,0.5]];portConstraint=eastwest;" parent="Xw4v44PQ6yykYLc8u8EY-24" vertex="1">
                    <mxGeometry y="104" width="160" height="26" as="geometry"/>
                </mxCell>
                <mxCell id="Xw4v44PQ6yykYLc8u8EY-29" value="+ goals: int" style="text;html=1;strokeColor=none;fillColor=none;align=left;verticalAlign=top;spacingLeft=4;spacingRight=4;whiteSpace=wrap;overflow=hidden;rotatable=0;points=[[0,0.5],[1,0.5]];portConstraint=eastwest;" parent="Xw4v44PQ6yykYLc8u8EY-24" vertex="1">
                    <mxGeometry y="130" width="160" height="26" as="geometry"/>
                </mxCell>
                <mxCell id="Xw4v44PQ6yykYLc8u8EY-30" value="+ assists: int" style="text;html=1;strokeColor=none;fillColor=none;align=left;verticalAlign=top;spacingLeft=4;spacingRight=4;whiteSpace=wrap;overflow=hidden;rotatable=0;points=[[0,0.5],[1,0.5]];portConstraint=eastwest;" parent="Xw4v44PQ6yykYLc8u8EY-24" vertex="1">
                    <mxGeometry y="156" width="160" height="26" as="geometry"/>
                </mxCell>
                <mxCell id="Xw4v44PQ6yykYLc8u8EY-31" value="" style="endArrow=none;html=1;edgeStyle=orthogonalEdgeStyle;rounded=0;" parent="1" source="Xw4v44PQ6yykYLc8u8EY-46" target="Xw4v44PQ6yykYLc8u8EY-20" edge="1">
                    <mxGeometry relative="1" as="geometry">
                        <mxPoint x="2250" y="604" as="sourcePoint"/>
                        <mxPoint x="2410" y="604" as="targetPoint"/>
                    </mxGeometry>
                </mxCell>
                <mxCell id="Xw4v44PQ6yykYLc8u8EY-32" value="0..*" style="edgeLabel;resizable=0;html=1;align=left;verticalAlign=bottom;" parent="Xw4v44PQ6yykYLc8u8EY-31" connectable="0" vertex="1">
                    <mxGeometry x="-1" relative="1" as="geometry">
                        <mxPoint x="2" y="-1" as="offset"/>
                    </mxGeometry>
                </mxCell>
                <mxCell id="Xw4v44PQ6yykYLc8u8EY-33" value="0..1" style="edgeLabel;resizable=0;html=1;align=right;verticalAlign=bottom;" parent="Xw4v44PQ6yykYLc8u8EY-31" connectable="0" vertex="1">
                    <mxGeometry x="1" relative="1" as="geometry">
                        <mxPoint x="-1" as="offset"/>
                    </mxGeometry>
                </mxCell>
                <mxCell id="Xw4v44PQ6yykYLc8u8EY-34" value="" style="endArrow=none;html=1;edgeStyle=orthogonalEdgeStyle;rounded=0;exitX=0.75;exitY=1;exitDx=0;exitDy=0;" parent="1" source="Xw4v44PQ6yykYLc8u8EY-46" target="Xw4v44PQ6yykYLc8u8EY-24" edge="1">
                    <mxGeometry relative="1" as="geometry">
                        <mxPoint x="2210" y="644" as="sourcePoint"/>
                        <mxPoint x="2350" y="644" as="targetPoint"/>
                    </mxGeometry>
                </mxCell>
                <mxCell id="Xw4v44PQ6yykYLc8u8EY-35" value="0..1" style="edgeLabel;resizable=0;html=1;align=left;verticalAlign=bottom;" parent="Xw4v44PQ6yykYLc8u8EY-34" connectable="0" vertex="1">
                    <mxGeometry x="-1" relative="1" as="geometry">
                        <mxPoint x="2" y="20" as="offset"/>
                    </mxGeometry>
                </mxCell>
                <mxCell id="Xw4v44PQ6yykYLc8u8EY-36" value="0..*" style="edgeLabel;resizable=0;html=1;align=right;verticalAlign=bottom;" parent="Xw4v44PQ6yykYLc8u8EY-34" connectable="0" vertex="1">
                    <mxGeometry x="1" relative="1" as="geometry">
                        <mxPoint x="-3" as="offset"/>
                    </mxGeometry>
                </mxCell>
                <mxCell id="Xw4v44PQ6yykYLc8u8EY-37" value="Game" style="swimlane;html=1;fontStyle=0;childLayout=stackLayout;horizontal=1;startSize=26;fillColor=none;horizontalStack=0;resizeParent=1;resizeLast=0;collapsible=1;marginBottom=0;swimlaneFillColor=#ffffff;rounded=0;shadow=0;comic=0;labelBackgroundColor=none;strokeWidth=1;fontFamily=Verdana;fontSize=10;align=center;" parent="1" vertex="1">
                    <mxGeometry x="1930" y="658" width="160" height="156" as="geometry"/>
                </mxCell>
                <mxCell id="Xw4v44PQ6yykYLc8u8EY-38" value="+ matchday: int" style="text;html=1;strokeColor=none;fillColor=none;align=left;verticalAlign=top;spacingLeft=4;spacingRight=4;whiteSpace=wrap;overflow=hidden;rotatable=0;points=[[0,0.5],[1,0.5]];portConstraint=eastwest;" parent="Xw4v44PQ6yykYLc8u8EY-37" vertex="1">
                    <mxGeometry y="26" width="160" height="26" as="geometry"/>
                </mxCell>
                <mxCell id="Xw4v44PQ6yykYLc8u8EY-39" value="+ matchDate: date" style="text;html=1;strokeColor=none;fillColor=none;align=left;verticalAlign=top;spacingLeft=4;spacingRight=4;whiteSpace=wrap;overflow=hidden;rotatable=0;points=[[0,0.5],[1,0.5]];portConstraint=eastwest;" parent="Xw4v44PQ6yykYLc8u8EY-37" vertex="1">
                    <mxGeometry y="52" width="160" height="26" as="geometry"/>
                </mxCell>
                <mxCell id="Xw4v44PQ6yykYLc8u8EY-40" value="+ matchTime: time" style="text;html=1;strokeColor=none;fillColor=none;align=left;verticalAlign=top;spacingLeft=4;spacingRight=4;whiteSpace=wrap;overflow=hidden;rotatable=0;points=[[0,0.5],[1,0.5]];portConstraint=eastwest;" parent="Xw4v44PQ6yykYLc8u8EY-37" vertex="1">
                    <mxGeometry y="78" width="160" height="26" as="geometry"/>
                </mxCell>
                <mxCell id="Xw4v44PQ6yykYLc8u8EY-41" value="+ goalsHome: int" style="text;html=1;strokeColor=none;fillColor=none;align=left;verticalAlign=top;spacingLeft=4;spacingRight=4;whiteSpace=wrap;overflow=hidden;rotatable=0;points=[[0,0.5],[1,0.5]];portConstraint=eastwest;" parent="Xw4v44PQ6yykYLc8u8EY-37" vertex="1">
                    <mxGeometry y="104" width="160" height="26" as="geometry"/>
                </mxCell>
                <mxCell id="Xw4v44PQ6yykYLc8u8EY-42" value="+ goalsGuest: int" style="text;html=1;strokeColor=none;fillColor=none;align=left;verticalAlign=top;spacingLeft=4;spacingRight=4;whiteSpace=wrap;overflow=hidden;rotatable=0;points=[[0,0.5],[1,0.5]];portConstraint=eastwest;" parent="Xw4v44PQ6yykYLc8u8EY-37" vertex="1">
                    <mxGeometry y="130" width="160" height="26" as="geometry"/>
                </mxCell>
                <mxCell id="Xw4v44PQ6yykYLc8u8EY-43" value="" style="endArrow=none;html=1;edgeStyle=orthogonalEdgeStyle;rounded=0;exitX=0.25;exitY=1;exitDx=0;exitDy=0;" parent="1" source="Xw4v44PQ6yykYLc8u8EY-46" target="Xw4v44PQ6yykYLc8u8EY-37" edge="1">
                    <mxGeometry relative="1" as="geometry">
                        <mxPoint x="2120" y="574" as="sourcePoint"/>
                        <mxPoint x="2120" y="684" as="targetPoint"/>
                    </mxGeometry>
                </mxCell>
                <mxCell id="Xw4v44PQ6yykYLc8u8EY-44" value="0..2" style="edgeLabel;resizable=0;html=1;align=left;verticalAlign=bottom;" parent="Xw4v44PQ6yykYLc8u8EY-43" connectable="0" vertex="1">
                    <mxGeometry x="-1" relative="1" as="geometry">
                        <mxPoint x="1" y="18" as="offset"/>
                    </mxGeometry>
                </mxCell>
                <mxCell id="Xw4v44PQ6yykYLc8u8EY-45" value="0..*" style="edgeLabel;resizable=0;html=1;align=right;verticalAlign=bottom;" parent="Xw4v44PQ6yykYLc8u8EY-43" connectable="0" vertex="1">
                    <mxGeometry x="1" relative="1" as="geometry">
                        <mxPoint x="-2" as="offset"/>
                    </mxGeometry>
                </mxCell>
                <mxCell id="Xw4v44PQ6yykYLc8u8EY-46" value="FootballClub" style="swimlane;html=1;fontStyle=0;childLayout=stackLayout;horizontal=1;startSize=26;fillColor=none;horizontalStack=0;resizeParent=1;resizeLast=0;collapsible=1;marginBottom=0;swimlaneFillColor=#ffffff;rounded=0;shadow=0;comic=0;labelBackgroundColor=none;strokeWidth=1;fontFamily=Verdana;fontSize=10;align=center;" parent="1" vertex="1">
                    <mxGeometry x="2030" y="434" width="160" height="140" as="geometry"/>
                </mxCell>
                <mxCell id="Xw4v44PQ6yykYLc8u8EY-47" value="+ league: id" style="text;html=1;strokeColor=none;fillColor=none;align=left;verticalAlign=top;spacingLeft=4;spacingRight=4;whiteSpace=wrap;overflow=hidden;rotatable=0;points=[[0,0.5],[1,0.5]];portConstraint=eastwest;" parent="Xw4v44PQ6yykYLc8u8EY-46" vertex="1">
                    <mxGeometry y="26" width="160" height="26" as="geometry"/>
                </mxCell>
                <mxCell id="Xw4v44PQ6yykYLc8u8EY-48" value="+ noOfTeams: int" style="text;html=1;strokeColor=none;fillColor=none;align=left;verticalAlign=top;spacingLeft=4;spacingRight=4;whiteSpace=wrap;overflow=hidden;rotatable=0;points=[[0,0.5],[1,0.5]];portConstraint=eastwest;" parent="Xw4v44PQ6yykYLc8u8EY-46" vertex="1">
                    <mxGeometry y="52" width="160" height="26" as="geometry"/>
                </mxCell>
                <mxCell id="Xw4v44PQ6yykYLc8u8EY-49" value="+ hasStadium: boolean" style="text;html=1;strokeColor=none;fillColor=none;align=left;verticalAlign=top;spacingLeft=4;spacingRight=4;whiteSpace=wrap;overflow=hidden;rotatable=0;points=[[0,0.5],[1,0.5]];portConstraint=eastwest;" parent="Xw4v44PQ6yykYLc8u8EY-46" vertex="1">
                    <mxGeometry y="78" width="160" height="26" as="geometry"/>
                </mxCell>
                <mxCell id="Xw4v44PQ6yykYLc8u8EY-50" value="+ hasProfTeam: boolean" style="text;html=1;strokeColor=none;fillColor=none;align=left;verticalAlign=top;spacingLeft=4;spacingRight=4;whiteSpace=wrap;overflow=hidden;rotatable=0;points=[[0,0.5],[1,0.5]];portConstraint=eastwest;" parent="Xw4v44PQ6yykYLc8u8EY-46" vertex="1">
                    <mxGeometry y="104" width="160" height="26" as="geometry"/>
                </mxCell>
                <mxCell id="Xw4v44PQ6yykYLc8u8EY-51" value="" style="endArrow=block;endSize=16;endFill=0;html=1;exitX=0.553;exitY=0;exitDx=0;exitDy=0;exitPerimeter=0;rounded=0;entryX=0.5;entryY=1;entryDx=0;entryDy=0;" parent="1" source="Xw4v44PQ6yykYLc8u8EY-20" target="Xw4v44PQ6yykYLc8u8EY-16" edge="1">
                    <mxGeometry width="160" relative="1" as="geometry">
                        <mxPoint x="2230" y="394" as="sourcePoint"/>
                        <mxPoint x="2000" y="234" as="targetPoint"/>
                        <Array as="points">
                            <mxPoint x="2383" y="264"/>
                            <mxPoint x="2000" y="264"/>
                        </Array>
                    </mxGeometry>
                </mxCell>
                <mxCell id="Xw4v44PQ6yykYLc8u8EY-52" value="" style="endArrow=block;endSize=16;endFill=0;html=1;rounded=0;exitX=0;exitY=0.5;exitDx=0;exitDy=0;" parent="1" source="Xw4v44PQ6yykYLc8u8EY-40" edge="1">
                    <mxGeometry width="160" relative="1" as="geometry">
                        <mxPoint x="1670" y="624" as="sourcePoint"/>
                        <mxPoint x="2000" y="224" as="targetPoint"/>
                        <Array as="points">
                            <mxPoint x="1790" y="749"/>
                            <mxPoint x="1790" y="264"/>
                            <mxPoint x="2000" y="264"/>
                        </Array>
                    </mxGeometry>
                </mxCell>
                <mxCell id="Xw4v44PQ6yykYLc8u8EY-53" value="" style="endArrow=block;endSize=16;endFill=0;html=1;rounded=0;exitX=1;exitY=0.5;exitDx=0;exitDy=0;" parent="1" source="Xw4v44PQ6yykYLc8u8EY-27" edge="1">
                    <mxGeometry width="160" relative="1" as="geometry">
                        <mxPoint x="2300" y="734" as="sourcePoint"/>
                        <mxPoint x="2000" y="224" as="targetPoint"/>
                        <Array as="points">
                            <mxPoint x="2470" y="749"/>
                            <mxPoint x="2470" y="264"/>
                            <mxPoint x="2000" y="264"/>
                        </Array>
                    </mxGeometry>
                </mxCell>
            </root>
        </mxGraphModel>
    </diagram>
    <diagram id="eN_ybtrGHALU-Dug8IVK" name="Object-Diagram">
        <mxGraphModel dx="2449" dy="934" grid="1" gridSize="10" guides="1" tooltips="1" connect="1" arrows="1" fold="1" page="1" pageScale="1" pageWidth="850" pageHeight="1100" math="0" shadow="0">
            <root>
                <mxCell id="0"/>
                <mxCell id="1" parent="0"/>
                <mxCell id="Fx-Vs9U3MzcwcksX3SeC-56" value="" style="edgeStyle=none;html=1;fontSize=12;" parent="1" source="viUZZFq3nR9KyB2QBr4z-1" target="Fx-Vs9U3MzcwcksX3SeC-51" edge="1">
                    <mxGeometry relative="1" as="geometry"/>
                </mxCell>
                <mxCell id="Fx-Vs9U3MzcwcksX3SeC-57" value="next" style="edgeLabel;html=1;align=center;verticalAlign=middle;resizable=0;points=[];fontSize=12;" parent="Fx-Vs9U3MzcwcksX3SeC-56" vertex="1" connectable="0">
                    <mxGeometry x="-0.3647" relative="1" as="geometry">
                        <mxPoint as="offset"/>
                    </mxGeometry>
                </mxCell>
                <mxCell id="Fx-Vs9U3MzcwcksX3SeC-71" value="" style="edgeStyle=none;html=1;fontSize=12;" parent="1" source="viUZZFq3nR9KyB2QBr4z-1" target="Fx-Vs9U3MzcwcksX3SeC-67" edge="1">
                    <mxGeometry relative="1" as="geometry"/>
                </mxCell>
                <mxCell id="Fx-Vs9U3MzcwcksX3SeC-75" value="myPlayers" style="edgeLabel;html=1;align=center;verticalAlign=middle;resizable=0;points=[];fontSize=12;" parent="Fx-Vs9U3MzcwcksX3SeC-71" vertex="1" connectable="0">
                    <mxGeometry x="-0.4462" relative="1" as="geometry">
                        <mxPoint x="-13" as="offset"/>
                    </mxGeometry>
                </mxCell>
                <mxCell id="viUZZFq3nR9KyB2QBr4z-1" value="&lt;p style=&quot;margin:0px;margin-top:4px;text-align:center;text-decoration:underline;&quot;&gt;&lt;b&gt;c1:ClubEntity&lt;/b&gt;&lt;/p&gt;&lt;hr&gt;&lt;p style=&quot;margin:0px;margin-left:8px;&quot;&gt;id = 1&lt;/p&gt;&lt;p style=&quot;margin:0px;margin-left:8px;&quot;&gt;name = &quot;FC Bayern München&quot;&lt;br&gt;&lt;br&gt;&lt;/p&gt;" style="verticalAlign=top;align=left;overflow=fill;fontSize=12;fontFamily=Helvetica;html=1;whiteSpace=wrap;fillColor=#d5e8d4;strokeColor=#82b366;" parent="1" vertex="1">
                    <mxGeometry x="307" y="430" width="230" height="90" as="geometry"/>
                </mxCell>
                <mxCell id="Fx-Vs9U3MzcwcksX3SeC-52" style="edgeStyle=none;html=1;exitX=0.25;exitY=1;exitDx=0;exitDy=0;entryX=0.25;entryY=0;entryDx=0;entryDy=0;fontSize=12;" parent="1" source="viUZZFq3nR9KyB2QBr4z-5" target="viUZZFq3nR9KyB2QBr4z-1" edge="1">
                    <mxGeometry relative="1" as="geometry"/>
                </mxCell>
                <mxCell id="Fx-Vs9U3MzcwcksX3SeC-53" value="myClubs" style="edgeLabel;html=1;align=center;verticalAlign=middle;resizable=0;points=[];fontSize=12;" parent="Fx-Vs9U3MzcwcksX3SeC-52" vertex="1" connectable="0">
                    <mxGeometry x="-0.3392" y="-2" relative="1" as="geometry">
                        <mxPoint as="offset"/>
                    </mxGeometry>
                </mxCell>
                <mxCell id="viUZZFq3nR9KyB2QBr4z-5" value="&lt;p style=&quot;margin:0px;margin-top:4px;text-align:center;text-decoration:underline;&quot;&gt;&lt;b&gt;l1:LeagueEntity&lt;/b&gt;&lt;/p&gt;&lt;hr&gt;&lt;p style=&quot;margin:0px;margin-left:8px;&quot;&gt;id = 1&lt;/p&gt;&lt;p style=&quot;margin:0px;margin-left:8px;&quot;&gt;name = &quot;Die Liga - Fußballverband&quot;&lt;br&gt;&lt;/p&gt;&lt;p style=&quot;margin:0px;margin-left:8px;&quot;&gt;firstMatch = 1963-08-24&lt;br&gt;&lt;/p&gt;&lt;p style=&quot;margin:0px;margin-left:8px;&quot;&gt;recordPlayer = &quot;Karl-Heinz Körbel&quot;&lt;/p&gt;" style="verticalAlign=top;align=left;overflow=fill;fontSize=12;fontFamily=Helvetica;html=1;whiteSpace=wrap;fillColor=#d5e8d4;strokeColor=#82b366;" parent="1" vertex="1">
                    <mxGeometry x="307" y="240" width="230" height="100" as="geometry"/>
                </mxCell>
                <mxCell id="Fx-Vs9U3MzcwcksX3SeC-1" value="football" style="shape=umlFrame;whiteSpace=wrap;html=1;rounded=0;shadow=0;comic=0;labelBackgroundColor=none;strokeWidth=1;fontFamily=Verdana;fontSize=10;align=center;" parent="1" vertex="1">
                    <mxGeometry x="-680" y="170" width="590" height="590" as="geometry"/>
                </mxCell>
                <mxCell id="Fx-Vs9U3MzcwcksX3SeC-2" value="" style="endArrow=block;endSize=16;endFill=0;html=1;rounded=0;edgeStyle=orthogonalEdgeStyle;" parent="1" edge="1">
                    <mxGeometry width="160" relative="1" as="geometry">
                        <mxPoint x="-344.5" y="232" as="sourcePoint"/>
                        <mxPoint x="-470" y="404" as="targetPoint"/>
                        <Array as="points">
                            <mxPoint x="-400" y="232"/>
                            <mxPoint x="-400" y="404"/>
                        </Array>
                    </mxGeometry>
                </mxCell>
                <mxCell id="Fx-Vs9U3MzcwcksX3SeC-3" value="&lt;p style=&quot;margin:0px;margin-top:4px;text-align:center;&quot;&gt;&lt;i&gt;&amp;lt;&amp;lt;interface&amp;gt;&amp;gt;&lt;/i&gt;&lt;br&gt;&lt;b&gt;SizeInterface&lt;/b&gt;&lt;/p&gt;&lt;hr size=&quot;1&quot;&gt;&lt;p style=&quot;margin:0px;margin-left:4px;&quot;&gt;&lt;/p&gt;&lt;p style=&quot;margin:0px;margin-left:4px;&quot;&gt;+ getObjectSize(): int&lt;br&gt;&lt;/p&gt;" style="verticalAlign=top;align=left;overflow=fill;fontSize=12;fontFamily=Helvetica;html=1;rounded=0;shadow=0;comic=0;labelBackgroundColor=none;strokeWidth=1;fillColor=#dae8fc;strokeColor=#6c8ebf;" parent="1" vertex="1">
                    <mxGeometry x="-620" y="234" width="140" height="70" as="geometry"/>
                </mxCell>
                <mxCell id="Fx-Vs9U3MzcwcksX3SeC-4" value="AbstractEntity" style="swimlane;html=1;fontStyle=0;childLayout=stackLayout;horizontal=1;startSize=26;fillColor=#fff2cc;horizontalStack=0;resizeParent=1;resizeLast=0;collapsible=1;marginBottom=0;swimlaneFillColor=#ffffff;rounded=0;shadow=0;comic=0;labelBackgroundColor=none;strokeWidth=1;fontFamily=Verdana;fontSize=10;align=center;strokeColor=#d6b656;" parent="1" vertex="1">
                    <mxGeometry x="-630" y="378" width="160" height="60" as="geometry"/>
                </mxCell>
                <mxCell id="Fx-Vs9U3MzcwcksX3SeC-5" value="+ id: int" style="text;html=1;strokeColor=none;fillColor=none;align=left;verticalAlign=top;spacingLeft=4;spacingRight=4;whiteSpace=wrap;overflow=hidden;rotatable=0;points=[[0,0.5],[1,0.5]];portConstraint=eastwest;" parent="Fx-Vs9U3MzcwcksX3SeC-4" vertex="1">
                    <mxGeometry y="26" width="160" height="26" as="geometry"/>
                </mxCell>
                <mxCell id="Fx-Vs9U3MzcwcksX3SeC-6" value="" style="endArrow=block;dashed=1;endFill=0;endSize=12;html=1;rounded=0;" parent="1" source="Fx-Vs9U3MzcwcksX3SeC-4" target="Fx-Vs9U3MzcwcksX3SeC-3" edge="1">
                    <mxGeometry width="160" relative="1" as="geometry">
                        <mxPoint x="-310" y="424" as="sourcePoint"/>
                        <mxPoint x="-150" y="424" as="targetPoint"/>
                    </mxGeometry>
                </mxCell>
                <mxCell id="Fx-Vs9U3MzcwcksX3SeC-7" value="LeagueEntity" style="swimlane;html=1;fontStyle=0;childLayout=stackLayout;horizontal=1;startSize=26;fillColor=#ffe6cc;horizontalStack=0;resizeParent=1;resizeLast=0;collapsible=1;marginBottom=0;swimlaneFillColor=#ffffff;rounded=0;shadow=0;comic=0;labelBackgroundColor=none;strokeWidth=1;fontFamily=Verdana;fontSize=10;align=center;strokeColor=#d79b00;" parent="1" vertex="1">
                    <mxGeometry x="-344.5" y="180" width="149" height="160" as="geometry"/>
                </mxCell>
                <mxCell id="Fx-Vs9U3MzcwcksX3SeC-8" value="+ name: string" style="text;html=1;strokeColor=none;fillColor=none;align=left;verticalAlign=top;spacingLeft=4;spacingRight=4;whiteSpace=wrap;overflow=hidden;rotatable=0;points=[[0,0.5],[1,0.5]];portConstraint=eastwest;" parent="Fx-Vs9U3MzcwcksX3SeC-7" vertex="1">
                    <mxGeometry y="26" width="149" height="26" as="geometry"/>
                </mxCell>
                <mxCell id="Fx-Vs9U3MzcwcksX3SeC-9" value="+ firstMatch: date" style="text;html=1;strokeColor=none;fillColor=none;align=left;verticalAlign=top;spacingLeft=4;spacingRight=4;whiteSpace=wrap;overflow=hidden;rotatable=0;points=[[0,0.5],[1,0.5]];portConstraint=eastwest;" parent="Fx-Vs9U3MzcwcksX3SeC-7" vertex="1">
                    <mxGeometry y="52" width="149" height="26" as="geometry"/>
                </mxCell>
                <mxCell id="Fx-Vs9U3MzcwcksX3SeC-10" value="+ recordPlayer: string" style="text;html=1;strokeColor=none;fillColor=none;align=left;verticalAlign=top;spacingLeft=4;spacingRight=4;whiteSpace=wrap;overflow=hidden;rotatable=0;points=[[0,0.5],[1,0.5]];portConstraint=eastwest;" parent="Fx-Vs9U3MzcwcksX3SeC-7" vertex="1">
                    <mxGeometry y="78" width="149" height="26" as="geometry"/>
                </mxCell>
                <mxCell id="Fx-Vs9U3MzcwcksX3SeC-11" value="+ gamesRecordPlayer: int" style="text;html=1;strokeColor=none;fillColor=none;align=left;verticalAlign=top;spacingLeft=4;spacingRight=4;whiteSpace=wrap;overflow=hidden;rotatable=0;points=[[0,0.5],[1,0.5]];portConstraint=eastwest;" parent="Fx-Vs9U3MzcwcksX3SeC-7" vertex="1">
                    <mxGeometry y="104" width="149" height="26" as="geometry"/>
                </mxCell>
                <mxCell id="Fx-Vs9U3MzcwcksX3SeC-12" value="+ champion: ClubEntity" style="text;html=1;strokeColor=none;fillColor=none;align=left;verticalAlign=top;spacingLeft=4;spacingRight=4;whiteSpace=wrap;overflow=hidden;rotatable=0;points=[[0,0.5],[1,0.5]];portConstraint=eastwest;" parent="Fx-Vs9U3MzcwcksX3SeC-7" vertex="1">
                    <mxGeometry y="130" width="149" height="26" as="geometry"/>
                </mxCell>
                <mxCell id="Fx-Vs9U3MzcwcksX3SeC-13" value="" style="endArrow=none;html=1;edgeStyle=orthogonalEdgeStyle;rounded=0;entryX=0.495;entryY=0.01;entryDx=0;entryDy=0;entryPerimeter=0;" parent="1" target="Fx-Vs9U3MzcwcksX3SeC-38" edge="1">
                    <mxGeometry relative="1" as="geometry">
                        <mxPoint x="-230" y="500" as="sourcePoint"/>
                        <mxPoint x="-230.17000000000007" y="550" as="targetPoint"/>
                    </mxGeometry>
                </mxCell>
                <mxCell id="Fx-Vs9U3MzcwcksX3SeC-14" value="0..1" style="edgeLabel;resizable=0;html=1;align=left;verticalAlign=bottom;" parent="Fx-Vs9U3MzcwcksX3SeC-13" connectable="0" vertex="1">
                    <mxGeometry x="-1" relative="1" as="geometry">
                        <mxPoint y="19" as="offset"/>
                    </mxGeometry>
                </mxCell>
                <mxCell id="Fx-Vs9U3MzcwcksX3SeC-15" value="0..*" style="edgeLabel;resizable=0;html=1;align=right;verticalAlign=bottom;" parent="Fx-Vs9U3MzcwcksX3SeC-13" connectable="0" vertex="1">
                    <mxGeometry x="1" relative="1" as="geometry"/>
                </mxCell>
                <mxCell id="Fx-Vs9U3MzcwcksX3SeC-16" value="myPlayers" style="edgeLabel;html=1;align=center;verticalAlign=middle;resizable=0;points=[];" parent="Fx-Vs9U3MzcwcksX3SeC-13" vertex="1" connectable="0">
                    <mxGeometry x="0.272" relative="1" as="geometry">
                        <mxPoint y="-7" as="offset"/>
                    </mxGeometry>
                </mxCell>
                <mxCell id="Fx-Vs9U3MzcwcksX3SeC-17" value="GameEntity" style="swimlane;html=1;fontStyle=0;childLayout=stackLayout;horizontal=1;startSize=26;fillColor=#ffe6cc;horizontalStack=0;resizeParent=1;resizeLast=0;collapsible=1;marginBottom=0;swimlaneFillColor=#ffffff;rounded=0;shadow=0;comic=0;labelBackgroundColor=none;strokeWidth=1;fontFamily=Verdana;fontSize=10;align=center;strokeColor=#d79b00;" parent="1" vertex="1">
                    <mxGeometry x="-590" y="552" width="160" height="188" as="geometry"/>
                </mxCell>
                <mxCell id="Fx-Vs9U3MzcwcksX3SeC-18" value="+ matchday: int" style="text;html=1;strokeColor=none;fillColor=none;align=left;verticalAlign=top;spacingLeft=4;spacingRight=4;whiteSpace=wrap;overflow=hidden;rotatable=0;points=[[0,0.5],[1,0.5]];portConstraint=eastwest;" parent="Fx-Vs9U3MzcwcksX3SeC-17" vertex="1">
                    <mxGeometry y="26" width="160" height="26" as="geometry"/>
                </mxCell>
                <mxCell id="Fx-Vs9U3MzcwcksX3SeC-19" value="+ matchDate: date" style="text;html=1;strokeColor=none;fillColor=none;align=left;verticalAlign=top;spacingLeft=4;spacingRight=4;whiteSpace=wrap;overflow=hidden;rotatable=0;points=[[0,0.5],[1,0.5]];portConstraint=eastwest;" parent="Fx-Vs9U3MzcwcksX3SeC-17" vertex="1">
                    <mxGeometry y="52" width="160" height="26" as="geometry"/>
                </mxCell>
                <mxCell id="Fx-Vs9U3MzcwcksX3SeC-20" value="+ matchTime: time" style="text;html=1;strokeColor=none;fillColor=none;align=left;verticalAlign=top;spacingLeft=4;spacingRight=4;whiteSpace=wrap;overflow=hidden;rotatable=0;points=[[0,0.5],[1,0.5]];portConstraint=eastwest;" parent="Fx-Vs9U3MzcwcksX3SeC-17" vertex="1">
                    <mxGeometry y="78" width="160" height="26" as="geometry"/>
                </mxCell>
                <mxCell id="Fx-Vs9U3MzcwcksX3SeC-21" value="+ goalsHome: int" style="text;html=1;strokeColor=none;fillColor=none;align=left;verticalAlign=top;spacingLeft=4;spacingRight=4;whiteSpace=wrap;overflow=hidden;rotatable=0;points=[[0,0.5],[1,0.5]];portConstraint=eastwest;" parent="Fx-Vs9U3MzcwcksX3SeC-17" vertex="1">
                    <mxGeometry y="104" width="160" height="26" as="geometry"/>
                </mxCell>
                <mxCell id="Fx-Vs9U3MzcwcksX3SeC-22" value="+ goalsGuest: int" style="text;html=1;strokeColor=none;fillColor=none;align=left;verticalAlign=top;spacingLeft=4;spacingRight=4;whiteSpace=wrap;overflow=hidden;rotatable=0;points=[[0,0.5],[1,0.5]];portConstraint=eastwest;" parent="Fx-Vs9U3MzcwcksX3SeC-17" vertex="1">
                    <mxGeometry y="130" width="160" height="26" as="geometry"/>
                </mxCell>
                <mxCell id="Fx-Vs9U3MzcwcksX3SeC-23" value="" style="endArrow=none;html=1;edgeStyle=orthogonalEdgeStyle;rounded=0;exitX=0.25;exitY=1;exitDx=0;exitDy=0;entryX=1;entryY=0.5;entryDx=0;entryDy=0;" parent="1" source="Fx-Vs9U3MzcwcksX3SeC-27" target="Fx-Vs9U3MzcwcksX3SeC-18" edge="1">
                    <mxGeometry relative="1" as="geometry">
                        <mxPoint x="-260" y="474" as="sourcePoint"/>
                        <mxPoint x="-260" y="584" as="targetPoint"/>
                        <Array as="points">
                            <mxPoint x="-310" y="510"/>
                            <mxPoint x="-370" y="510"/>
                            <mxPoint x="-370" y="590"/>
                        </Array>
                    </mxGeometry>
                </mxCell>
                <mxCell id="Fx-Vs9U3MzcwcksX3SeC-24" value="2" style="edgeLabel;resizable=0;html=1;align=left;verticalAlign=bottom;" parent="Fx-Vs9U3MzcwcksX3SeC-23" connectable="0" vertex="1">
                    <mxGeometry x="-1" relative="1" as="geometry">
                        <mxPoint x="2" y="16" as="offset"/>
                    </mxGeometry>
                </mxCell>
                <mxCell id="Fx-Vs9U3MzcwcksX3SeC-25" value="0..*" style="edgeLabel;resizable=0;html=1;align=right;verticalAlign=bottom;" parent="Fx-Vs9U3MzcwcksX3SeC-23" connectable="0" vertex="1">
                    <mxGeometry x="1" relative="1" as="geometry">
                        <mxPoint x="20" as="offset"/>
                    </mxGeometry>
                </mxCell>
                <mxCell id="Fx-Vs9U3MzcwcksX3SeC-26" value="myGames" style="edgeLabel;html=1;align=center;verticalAlign=middle;resizable=0;points=[];" parent="Fx-Vs9U3MzcwcksX3SeC-23" vertex="1" connectable="0">
                    <mxGeometry x="0.0604" y="-1" relative="1" as="geometry">
                        <mxPoint as="offset"/>
                    </mxGeometry>
                </mxCell>
                <mxCell id="Fx-Vs9U3MzcwcksX3SeC-27" value="ClubEntity" style="swimlane;html=1;fontStyle=0;childLayout=stackLayout;horizontal=1;startSize=26;fillColor=#ffe6cc;horizontalStack=0;resizeParent=1;resizeLast=0;collapsible=1;marginBottom=0;swimlaneFillColor=#ffffff;rounded=0;shadow=0;comic=0;labelBackgroundColor=none;strokeWidth=1;fontFamily=Verdana;fontSize=10;align=center;strokeColor=#d79b00;" parent="1" vertex="1">
                    <mxGeometry x="-350" y="387" width="160" height="112" as="geometry"/>
                </mxCell>
                <mxCell id="Fx-Vs9U3MzcwcksX3SeC-28" value="+ league: LeagueEntity" style="text;html=1;strokeColor=none;fillColor=none;align=left;verticalAlign=top;spacingLeft=4;spacingRight=4;whiteSpace=wrap;overflow=hidden;rotatable=0;points=[[0,0.5],[1,0.5]];portConstraint=eastwest;" parent="Fx-Vs9U3MzcwcksX3SeC-27" vertex="1">
                    <mxGeometry y="26" width="160" height="26" as="geometry"/>
                </mxCell>
                <mxCell id="Fx-Vs9U3MzcwcksX3SeC-29" value="+ name: string" style="text;html=1;strokeColor=none;fillColor=none;align=left;verticalAlign=top;spacingLeft=4;spacingRight=4;whiteSpace=wrap;overflow=hidden;rotatable=0;points=[[0,0.5],[1,0.5]];portConstraint=eastwest;" parent="Fx-Vs9U3MzcwcksX3SeC-27" vertex="1">
                    <mxGeometry y="52" width="160" height="26" as="geometry"/>
                </mxCell>
                <mxCell id="Fx-Vs9U3MzcwcksX3SeC-30" value="" style="endArrow=none;html=1;edgeStyle=orthogonalEdgeStyle;rounded=0;" parent="1" source="Fx-Vs9U3MzcwcksX3SeC-27" target="Fx-Vs9U3MzcwcksX3SeC-7" edge="1">
                    <mxGeometry relative="1" as="geometry">
                        <mxPoint x="-205" y="420" as="sourcePoint"/>
                        <mxPoint x="-65" y="420" as="targetPoint"/>
                    </mxGeometry>
                </mxCell>
                <mxCell id="Fx-Vs9U3MzcwcksX3SeC-31" value="0..*" style="edgeLabel;resizable=0;html=1;align=left;verticalAlign=bottom;" parent="Fx-Vs9U3MzcwcksX3SeC-30" connectable="0" vertex="1">
                    <mxGeometry x="-1" relative="1" as="geometry"/>
                </mxCell>
                <mxCell id="Fx-Vs9U3MzcwcksX3SeC-32" value="0..1" style="edgeLabel;resizable=0;html=1;align=right;verticalAlign=bottom;" parent="Fx-Vs9U3MzcwcksX3SeC-30" connectable="0" vertex="1">
                    <mxGeometry x="1" relative="1" as="geometry">
                        <mxPoint x="20" y="16" as="offset"/>
                    </mxGeometry>
                </mxCell>
                <mxCell id="Fx-Vs9U3MzcwcksX3SeC-33" value="myClubs" style="edgeLabel;html=1;align=center;verticalAlign=middle;resizable=0;points=[];" parent="Fx-Vs9U3MzcwcksX3SeC-30" vertex="1" connectable="0">
                    <mxGeometry x="-0.0468" y="-1" relative="1" as="geometry">
                        <mxPoint as="offset"/>
                    </mxGeometry>
                </mxCell>
                <mxCell id="Fx-Vs9U3MzcwcksX3SeC-34" value="" style="endArrow=block;endSize=16;endFill=0;html=1;rounded=0;edgeStyle=orthogonalEdgeStyle;" parent="1" source="Fx-Vs9U3MzcwcksX3SeC-27" target="Fx-Vs9U3MzcwcksX3SeC-4" edge="1">
                    <mxGeometry width="160" relative="1" as="geometry">
                        <mxPoint x="-515" y="320" as="sourcePoint"/>
                        <mxPoint x="-625" y="264" as="targetPoint"/>
                        <Array as="points">
                            <mxPoint x="-380" y="430"/>
                            <mxPoint x="-380" y="430"/>
                        </Array>
                    </mxGeometry>
                </mxCell>
                <mxCell id="Fx-Vs9U3MzcwcksX3SeC-35" value="" style="endArrow=block;endSize=16;endFill=0;html=1;rounded=0;edgeStyle=orthogonalEdgeStyle;" parent="1" source="Fx-Vs9U3MzcwcksX3SeC-7" target="Fx-Vs9U3MzcwcksX3SeC-4" edge="1">
                    <mxGeometry width="160" relative="1" as="geometry">
                        <mxPoint x="-340" y="414" as="sourcePoint"/>
                        <mxPoint x="-460" y="414" as="targetPoint"/>
                        <Array as="points">
                            <mxPoint x="-400" y="232"/>
                            <mxPoint x="-400" y="404"/>
                        </Array>
                    </mxGeometry>
                </mxCell>
                <mxCell id="Fx-Vs9U3MzcwcksX3SeC-36" value="" style="endArrow=block;endSize=16;endFill=0;html=1;rounded=0;edgeStyle=orthogonalEdgeStyle;exitX=0.25;exitY=0;exitDx=0;exitDy=0;" parent="1" source="Fx-Vs9U3MzcwcksX3SeC-17" target="Fx-Vs9U3MzcwcksX3SeC-4" edge="1">
                    <mxGeometry width="160" relative="1" as="geometry">
                        <mxPoint x="-330" y="424" as="sourcePoint"/>
                        <mxPoint x="-450" y="424" as="targetPoint"/>
                    </mxGeometry>
                </mxCell>
                <mxCell id="Fx-Vs9U3MzcwcksX3SeC-37" value="" style="endArrow=block;endSize=16;endFill=0;html=1;rounded=0;edgeStyle=orthogonalEdgeStyle;exitX=0.25;exitY=0;exitDx=0;exitDy=0;" parent="1" source="Fx-Vs9U3MzcwcksX3SeC-38" target="Fx-Vs9U3MzcwcksX3SeC-4" edge="1">
                    <mxGeometry width="160" relative="1" as="geometry">
                        <mxPoint x="-320" y="434" as="sourcePoint"/>
                        <mxPoint x="-440" y="434" as="targetPoint"/>
                        <Array as="points">
                            <mxPoint x="-270" y="530"/>
                            <mxPoint x="-550" y="530"/>
                        </Array>
                    </mxGeometry>
                </mxCell>
                <mxCell id="Fx-Vs9U3MzcwcksX3SeC-38" value="PlayerEntity" style="swimlane;html=1;fontStyle=0;childLayout=stackLayout;horizontal=1;startSize=26;fillColor=#ffe6cc;horizontalStack=0;resizeParent=1;resizeLast=0;collapsible=1;marginBottom=0;swimlaneFillColor=#ffffff;rounded=0;shadow=0;comic=0;labelBackgroundColor=none;strokeWidth=1;fontFamily=Verdana;fontSize=10;align=center;strokeColor=#d79b00;" parent="1" vertex="1">
                    <mxGeometry x="-309" y="552" width="160" height="182" as="geometry"/>
                </mxCell>
                <mxCell id="Fx-Vs9U3MzcwcksX3SeC-39" value="+ name: string" style="text;html=1;strokeColor=none;fillColor=none;align=left;verticalAlign=top;spacingLeft=4;spacingRight=4;whiteSpace=wrap;overflow=hidden;rotatable=0;points=[[0,0.5],[1,0.5]];portConstraint=eastwest;" parent="Fx-Vs9U3MzcwcksX3SeC-38" vertex="1">
                    <mxGeometry y="26" width="160" height="26" as="geometry"/>
                </mxCell>
                <mxCell id="Fx-Vs9U3MzcwcksX3SeC-40" value="+ trikotNumber: int" style="text;html=1;strokeColor=none;fillColor=none;align=left;verticalAlign=top;spacingLeft=4;spacingRight=4;whiteSpace=wrap;overflow=hidden;rotatable=0;points=[[0,0.5],[1,0.5]];portConstraint=eastwest;" parent="Fx-Vs9U3MzcwcksX3SeC-38" vertex="1">
                    <mxGeometry y="52" width="160" height="26" as="geometry"/>
                </mxCell>
                <mxCell id="Fx-Vs9U3MzcwcksX3SeC-41" value="+ country: string" style="text;html=1;strokeColor=none;fillColor=none;align=left;verticalAlign=top;spacingLeft=4;spacingRight=4;whiteSpace=wrap;overflow=hidden;rotatable=0;points=[[0,0.5],[1,0.5]];portConstraint=eastwest;" parent="Fx-Vs9U3MzcwcksX3SeC-38" vertex="1">
                    <mxGeometry y="78" width="160" height="26" as="geometry"/>
                </mxCell>
                <mxCell id="Fx-Vs9U3MzcwcksX3SeC-42" value="+ amountOfGames: int" style="text;html=1;strokeColor=none;fillColor=none;align=left;verticalAlign=top;spacingLeft=4;spacingRight=4;whiteSpace=wrap;overflow=hidden;rotatable=0;points=[[0,0.5],[1,0.5]];portConstraint=eastwest;" parent="Fx-Vs9U3MzcwcksX3SeC-38" vertex="1">
                    <mxGeometry y="104" width="160" height="26" as="geometry"/>
                </mxCell>
                <mxCell id="Fx-Vs9U3MzcwcksX3SeC-43" value="+ goals: int" style="text;html=1;strokeColor=none;fillColor=none;align=left;verticalAlign=top;spacingLeft=4;spacingRight=4;whiteSpace=wrap;overflow=hidden;rotatable=0;points=[[0,0.5],[1,0.5]];portConstraint=eastwest;" parent="Fx-Vs9U3MzcwcksX3SeC-38" vertex="1">
                    <mxGeometry y="130" width="160" height="26" as="geometry"/>
                </mxCell>
                <mxCell id="Fx-Vs9U3MzcwcksX3SeC-44" value="+ assists: int" style="text;html=1;strokeColor=none;fillColor=none;align=left;verticalAlign=top;spacingLeft=4;spacingRight=4;whiteSpace=wrap;overflow=hidden;rotatable=0;points=[[0,0.5],[1,0.5]];portConstraint=eastwest;" parent="Fx-Vs9U3MzcwcksX3SeC-38" vertex="1">
                    <mxGeometry y="156" width="160" height="26" as="geometry"/>
                </mxCell>
                <mxCell id="Fx-Vs9U3MzcwcksX3SeC-45" value="" style="endArrow=none;html=1;edgeStyle=orthogonalEdgeStyle;rounded=0;exitX=1;exitY=0.75;exitDx=0;exitDy=0;" parent="1" source="Fx-Vs9U3MzcwcksX3SeC-27" target="Fx-Vs9U3MzcwcksX3SeC-12" edge="1">
                    <mxGeometry relative="1" as="geometry">
                        <mxPoint x="-140" y="360" as="sourcePoint"/>
                        <mxPoint x="-140" y="322" as="targetPoint"/>
                        <Array as="points">
                            <mxPoint x="-160" y="471"/>
                            <mxPoint x="-160" y="323"/>
                        </Array>
                    </mxGeometry>
                </mxCell>
                <mxCell id="Fx-Vs9U3MzcwcksX3SeC-46" value="1" style="edgeLabel;resizable=0;html=1;align=left;verticalAlign=bottom;" parent="Fx-Vs9U3MzcwcksX3SeC-45" connectable="0" vertex="1">
                    <mxGeometry x="-1" relative="1" as="geometry"/>
                </mxCell>
                <mxCell id="Fx-Vs9U3MzcwcksX3SeC-47" value="0" style="edgeLabel;resizable=0;html=1;align=right;verticalAlign=bottom;" parent="Fx-Vs9U3MzcwcksX3SeC-45" connectable="0" vertex="1">
                    <mxGeometry x="1" relative="1" as="geometry">
                        <mxPoint x="20" y="16" as="offset"/>
                    </mxGeometry>
                </mxCell>
                <mxCell id="Fx-Vs9U3MzcwcksX3SeC-48" value="myChampion" style="edgeLabel;html=1;align=center;verticalAlign=middle;resizable=0;points=[];" parent="Fx-Vs9U3MzcwcksX3SeC-45" vertex="1" connectable="0">
                    <mxGeometry x="0.228" relative="1" as="geometry">
                        <mxPoint x="20" y="-11" as="offset"/>
                    </mxGeometry>
                </mxCell>
                <mxCell id="Fx-Vs9U3MzcwcksX3SeC-49" value="Just as areminder" style="text;html=1;strokeColor=none;fillColor=none;align=center;verticalAlign=middle;whiteSpace=wrap;rounded=0;fontSize=35;" parent="1" vertex="1">
                    <mxGeometry x="-680" y="100" width="590" height="30" as="geometry"/>
                </mxCell>
                <mxCell id="Fx-Vs9U3MzcwcksX3SeC-51" value="&lt;p style=&quot;margin:0px;margin-top:4px;text-align:center;text-decoration:underline;&quot;&gt;&lt;b&gt;c2:ClubEntity&lt;/b&gt;&lt;/p&gt;&lt;hr&gt;&lt;p style=&quot;margin:0px;margin-left:8px;&quot;&gt;id = 2&lt;/p&gt;&lt;p style=&quot;margin:0px;margin-left:8px;&quot;&gt;name = &quot;VfL Wolfsburg&quot;&lt;br&gt;&lt;br&gt;&lt;/p&gt;" style="verticalAlign=top;align=left;overflow=fill;fontSize=12;fontFamily=Helvetica;html=1;whiteSpace=wrap;fillColor=#d5e8d4;strokeColor=#82b366;" parent="1" vertex="1">
                    <mxGeometry x="607" y="430" width="230" height="90" as="geometry"/>
                </mxCell>
                <mxCell id="Fx-Vs9U3MzcwcksX3SeC-54" style="edgeStyle=none;html=1;exitX=0.75;exitY=1;exitDx=0;exitDy=0;entryX=0.75;entryY=0;entryDx=0;entryDy=0;fontSize=12;" parent="1" source="viUZZFq3nR9KyB2QBr4z-5" target="viUZZFq3nR9KyB2QBr4z-1" edge="1">
                    <mxGeometry relative="1" as="geometry">
                        <mxPoint x="374.5" y="350" as="sourcePoint"/>
                        <mxPoint x="374.5" y="440" as="targetPoint"/>
                    </mxGeometry>
                </mxCell>
                <mxCell id="Fx-Vs9U3MzcwcksX3SeC-55" value="myChampion" style="edgeLabel;html=1;align=center;verticalAlign=middle;resizable=0;points=[];fontSize=12;" parent="Fx-Vs9U3MzcwcksX3SeC-54" vertex="1" connectable="0">
                    <mxGeometry x="-0.3392" y="-2" relative="1" as="geometry">
                        <mxPoint as="offset"/>
                    </mxGeometry>
                </mxCell>
                <mxCell id="Fx-Vs9U3MzcwcksX3SeC-58" value="" style="edgeStyle=none;html=1;fontSize=12;exitX=1;exitY=0.5;exitDx=0;exitDy=0;" parent="1" source="Fx-Vs9U3MzcwcksX3SeC-51" edge="1">
                    <mxGeometry relative="1" as="geometry">
                        <mxPoint x="857" y="470" as="sourcePoint"/>
                        <mxPoint x="907" y="475" as="targetPoint"/>
                    </mxGeometry>
                </mxCell>
                <mxCell id="Fx-Vs9U3MzcwcksX3SeC-59" value="next" style="edgeLabel;html=1;align=center;verticalAlign=middle;resizable=0;points=[];fontSize=12;" parent="Fx-Vs9U3MzcwcksX3SeC-58" vertex="1" connectable="0">
                    <mxGeometry x="-0.3647" relative="1" as="geometry">
                        <mxPoint as="offset"/>
                    </mxGeometry>
                </mxCell>
                <mxCell id="Fx-Vs9U3MzcwcksX3SeC-60" value="Null" style="text;html=1;strokeColor=none;fillColor=none;align=center;verticalAlign=middle;whiteSpace=wrap;rounded=0;fontSize=12;" parent="1" vertex="1">
                    <mxGeometry x="907" y="460" width="40" height="30" as="geometry"/>
                </mxCell>
                <mxCell id="Fx-Vs9U3MzcwcksX3SeC-63" style="html=1;exitX=0.25;exitY=0;exitDx=0;exitDy=0;entryX=0.75;entryY=1;entryDx=0;entryDy=0;fontSize=12;" parent="1" source="Fx-Vs9U3MzcwcksX3SeC-61" target="viUZZFq3nR9KyB2QBr4z-1" edge="1">
                    <mxGeometry relative="1" as="geometry"/>
                </mxCell>
                <mxCell id="Fx-Vs9U3MzcwcksX3SeC-65" value="home" style="edgeLabel;html=1;align=center;verticalAlign=middle;resizable=0;points=[];fontSize=12;" parent="Fx-Vs9U3MzcwcksX3SeC-63" vertex="1" connectable="0">
                    <mxGeometry x="-0.2997" relative="1" as="geometry">
                        <mxPoint as="offset"/>
                    </mxGeometry>
                </mxCell>
                <mxCell id="Fx-Vs9U3MzcwcksX3SeC-64" style="edgeStyle=none;html=1;exitX=0.75;exitY=0;exitDx=0;exitDy=0;entryX=0.25;entryY=1;entryDx=0;entryDy=0;fontSize=12;" parent="1" source="Fx-Vs9U3MzcwcksX3SeC-61" target="Fx-Vs9U3MzcwcksX3SeC-51" edge="1">
                    <mxGeometry relative="1" as="geometry"/>
                </mxCell>
                <mxCell id="Fx-Vs9U3MzcwcksX3SeC-66" value="guest" style="edgeLabel;html=1;align=center;verticalAlign=middle;resizable=0;points=[];fontSize=12;" parent="Fx-Vs9U3MzcwcksX3SeC-64" vertex="1" connectable="0">
                    <mxGeometry x="-0.2493" y="-2" relative="1" as="geometry">
                        <mxPoint as="offset"/>
                    </mxGeometry>
                </mxCell>
                <mxCell id="Fx-Vs9U3MzcwcksX3SeC-61" value="&lt;p style=&quot;margin:0px;margin-top:4px;text-align:center;text-decoration:underline;&quot;&gt;&lt;b&gt;g1:GameEntity&lt;/b&gt;&lt;/p&gt;&lt;hr&gt;&lt;p style=&quot;margin:0px;margin-left:8px;&quot;&gt;id = 1&lt;/p&gt;&lt;p style=&quot;margin:0px;margin-left:8px;&quot;&gt;matchDate =&amp;nbsp;2015-08-14&lt;br&gt;&lt;br&gt;&lt;/p&gt;" style="verticalAlign=top;align=left;overflow=fill;fontSize=12;fontFamily=Helvetica;html=1;whiteSpace=wrap;fillColor=#d5e8d4;strokeColor=#82b366;" parent="1" vertex="1">
                    <mxGeometry x="467" y="610" width="230" height="90" as="geometry"/>
                </mxCell>
                <mxCell id="Fx-Vs9U3MzcwcksX3SeC-69" value="" style="edgeStyle=none;html=1;fontSize=12;" parent="1" source="Fx-Vs9U3MzcwcksX3SeC-67" target="Fx-Vs9U3MzcwcksX3SeC-68" edge="1">
                    <mxGeometry relative="1" as="geometry"/>
                </mxCell>
                <mxCell id="Fx-Vs9U3MzcwcksX3SeC-70" value="next" style="edgeLabel;html=1;align=center;verticalAlign=middle;resizable=0;points=[];fontSize=12;" parent="Fx-Vs9U3MzcwcksX3SeC-69" vertex="1" connectable="0">
                    <mxGeometry x="-0.4582" y="-1" relative="1" as="geometry">
                        <mxPoint as="offset"/>
                    </mxGeometry>
                </mxCell>
                <mxCell id="Fx-Vs9U3MzcwcksX3SeC-67" value="&lt;p style=&quot;margin:0px;margin-top:4px;text-align:center;text-decoration:underline;&quot;&gt;&lt;b&gt;p1:PlayerEntity&lt;/b&gt;&lt;/p&gt;&lt;hr&gt;&lt;p style=&quot;margin:0px;margin-left:8px;&quot;&gt;id = 1&lt;/p&gt;&lt;p style=&quot;margin:0px;margin-left:8px;&quot;&gt;name = &quot;Manuel Neuer&quot;&lt;br&gt;&lt;br&gt;&lt;/p&gt;" style="verticalAlign=top;align=left;overflow=fill;fontSize=12;fontFamily=Helvetica;html=1;whiteSpace=wrap;fillColor=#d5e8d4;strokeColor=#82b366;" parent="1" vertex="1">
                    <mxGeometry x="-10" y="430" width="230" height="90" as="geometry"/>
                </mxCell>
                <mxCell id="Fx-Vs9U3MzcwcksX3SeC-68" value="&lt;p style=&quot;margin:0px;margin-top:4px;text-align:center;text-decoration:underline;&quot;&gt;&lt;b&gt;p2:PlayerEntity&lt;/b&gt;&lt;/p&gt;&lt;hr&gt;&lt;p style=&quot;margin:0px;margin-left:8px;&quot;&gt;id = 2&lt;/p&gt;&lt;p style=&quot;margin:0px;margin-left:8px;&quot;&gt;name = &quot;Tom Starke&quot;&lt;br&gt;&lt;br&gt;&lt;/p&gt;" style="verticalAlign=top;align=left;overflow=fill;fontSize=12;fontFamily=Helvetica;html=1;whiteSpace=wrap;fillColor=#d5e8d4;strokeColor=#82b366;" parent="1" vertex="1">
                    <mxGeometry x="-10" y="580" width="230" height="90" as="geometry"/>
                </mxCell>
                <mxCell id="Fx-Vs9U3MzcwcksX3SeC-72" value="" style="edgeStyle=none;html=1;fontSize=12;exitX=0.5;exitY=1;exitDx=0;exitDy=0;" parent="1" source="Fx-Vs9U3MzcwcksX3SeC-68" edge="1">
                    <mxGeometry relative="1" as="geometry">
                        <mxPoint x="50" y="715" as="sourcePoint"/>
                        <mxPoint x="105" y="710" as="targetPoint"/>
                    </mxGeometry>
                </mxCell>
                <mxCell id="Fx-Vs9U3MzcwcksX3SeC-73" value="next" style="edgeLabel;html=1;align=center;verticalAlign=middle;resizable=0;points=[];fontSize=12;" parent="Fx-Vs9U3MzcwcksX3SeC-72" vertex="1" connectable="0">
                    <mxGeometry x="-0.3647" relative="1" as="geometry">
                        <mxPoint as="offset"/>
                    </mxGeometry>
                </mxCell>
                <mxCell id="Fx-Vs9U3MzcwcksX3SeC-74" value="Null" style="text;html=1;strokeColor=none;fillColor=none;align=center;verticalAlign=middle;whiteSpace=wrap;rounded=0;fontSize=12;" parent="1" vertex="1">
                    <mxGeometry x="85" y="710" width="40" height="30" as="geometry"/>
                </mxCell>
            </root>
        </mxGraphModel>
    </diagram>
    <diagram id="VQVjRTXBVeZ_mPHLnhv9" name="Page-3">
        <mxGraphModel dx="1591" dy="934" grid="1" gridSize="10" guides="1" tooltips="1" connect="1" arrows="1" fold="1" page="1" pageScale="1" pageWidth="850" pageHeight="1100" math="0" shadow="0">
            <root>
                <mxCell id="0"/>
                <mxCell id="1" parent="0"/>
            </root>
        </mxGraphModel>
    </diagram>
</mxfile>